<svg width="800" height="800" viewBox="0 0 800 800" fill="none" xmlns="http://www.w3.org/2000/svg">
<g clip-path="url(#clip0_3419_165)">
<path d="M546.996 36.6535H458.862L461.751 45.9608C470.588 74.4244 465.172 105.638 447.266 129.46L404.238 186.698C398.994 193.677 394.261 201.032 390.09 208.688L336.686 36.6605H253.004L140.208 399.977L253.004 763.302H340.861L338.305 754.186C328.244 721.754 334.358 686.509 354.578 659.612L397.613 602.368C401.497 597.199 405.083 591.804 408.343 586.225L463.318 763.295H546.996L659.791 399.977L546.996 36.6535ZM541.706 756.116H468.608L409.998 567.344C405.167 578.115 399.113 588.421 391.874 598.054L348.839 655.299C327.175 684.118 320.676 721.589 331.364 756.023L300.256 756.123L294.847 738.691C284.183 704.344 290.626 666.967 312.171 638.172L377.519 550.827C408.287 509.703 417.489 456.324 402.264 407.27L400 399.979H358.042V399.977L294.843 196.42L231.648 399.977H147.724L258.294 43.84H331.396L388.652 228.274C394.121 215.154 401.248 202.625 409.977 191.011L453.004 133.774C472.348 108.041 478.153 74.5804 468.608 43.833H499.744L505.157 61.2644C514.678 91.933 508.925 125.31 489.687 151.023L424.343 238.358C391.26 282.577 381.371 339.972 397.742 392.715L400 399.979L441.962 399.977L505.157 603.535L568.352 399.977H652.275L541.706 756.116ZM327.673 539.082L295.667 581.981L239.164 399.977L294.843 220.633L351.185 402.105C365.663 448.738 356.874 499.944 327.673 539.082ZM501.683 213.238L560.829 399.998L505.157 579.321L448.819 397.849C433.201 347.553 442.68 292.322 474.178 250.108L501.683 213.238Z" fill="#1F335D"/>
</g>
<defs>
<clipPath id="clip0_3419_165">
<rect width="800" height="800" fill="white"/>
</clipPath>
</defs>
</svg>
