<svg width="41" height="41" viewBox="0 0 41 41" fill="none" xmlns="http://www.w3.org/2000/svg">
<g id="instagram">
<g id="instagram_2">
<path d="M20.5 12.3374C23.25 12.3374 23.625 12.3374 24.75 12.3374C25.75 12.3374 26.25 12.5874 26.625 12.7124C27.125 12.9624 27.5 13.0874 27.875 13.4624C28.25 13.8374 28.5 14.2124 28.625 14.7124C28.75 15.0874 28.875 15.5874 29 16.5874C29 17.7124 29 17.9624 29 20.8374C29 23.7124 29 23.9624 29 25.0874C29 26.0874 28.75 26.5874 28.625 26.9624C28.375 27.4624 28.25 27.8374 27.875 28.2124C27.5 28.5874 27.125 28.8374 26.625 28.9624C26.25 29.0874 25.75 29.2124 24.75 29.3374C23.625 29.3374 23.375 29.3374 20.5 29.3374C17.625 29.3374 17.375 29.3374 16.25 29.3374C15.25 29.3374 14.75 29.0874 14.375 28.9624C13.875 28.7124 13.5 28.5874 13.125 28.2124C12.75 27.8374 12.5 27.4624 12.375 26.9624C12.25 26.5874 12.125 26.0874 12 25.0874C12 23.9624 12 23.7124 12 20.8374C12 17.9624 12 17.7124 12 16.5874C12 15.5874 12.25 15.0874 12.375 14.7124C12.625 14.2124 12.75 13.8374 13.125 13.4624C13.5 13.0874 13.875 12.8374 14.375 12.7124C14.75 12.5874 15.25 12.4624 16.25 12.3374C17.375 12.3374 17.75 12.3374 20.5 12.3374ZM20.5 10.4624C17.625 10.4624 17.375 10.4624 16.25 10.4624C15.125 10.4624 14.375 10.7124 13.75 10.9624C13.125 11.2124 12.5 11.5874 11.875 12.2124C11.25 12.8374 11 13.3374 10.625 14.0874C10.375 14.7124 10.25 15.4624 10.125 16.5874C10.125 17.7124 10.125 18.0874 10.125 20.8374C10.125 23.7124 10.125 23.9624 10.125 25.0874C10.125 26.2124 10.375 26.9624 10.625 27.5874C10.875 28.2124 11.25 28.8374 11.875 29.4624C12.5 30.0874 13 30.3374 13.75 30.7124C14.375 30.9624 15.125 31.0874 16.25 31.2124C17.375 31.2124 17.75 31.2124 20.5 31.2124C23.25 31.2124 23.625 31.2124 24.75 31.2124C25.875 31.2124 26.625 30.9624 27.25 30.7124C27.875 30.4624 28.5 30.0874 29.125 29.4624C29.75 28.8374 30 28.3374 30.375 27.5874C30.625 26.9624 30.75 26.2124 30.875 25.0874C30.875 23.9624 30.875 23.5874 30.875 20.8374C30.875 18.0874 30.875 17.7124 30.875 16.5874C30.875 15.4624 30.625 14.7124 30.375 14.0874C30.125 13.4624 29.75 12.8374 29.125 12.2124C28.5 11.5874 28 11.3374 27.25 10.9624C26.625 10.7124 25.875 10.5874 24.75 10.4624C23.625 10.4624 23.375 10.4624 20.5 10.4624Z" fill="white"/>
<path d="M20.5 15.4624C17.5 15.4624 15.125 17.8374 15.125 20.8374C15.125 23.8374 17.5 26.2124 20.5 26.2124C23.5 26.2124 25.875 23.8374 25.875 20.8374C25.875 17.8374 23.5 15.4624 20.5 15.4624ZM20.5 24.3374C18.625 24.3374 17 22.8374 17 20.8374C17 18.9624 18.5 17.3374 20.5 17.3374C22.375 17.3374 24 18.8374 24 20.8374C24 22.7124 22.375 24.3374 20.5 24.3374Z" fill="white"/>
<path d="M26 16.5874C26.6904 16.5874 27.25 16.0278 27.25 15.3374C27.25 14.647 26.6904 14.0874 26 14.0874C25.3096 14.0874 24.75 14.647 24.75 15.3374C24.75 16.0278 25.3096 16.5874 26 16.5874Z" fill="white"/>
</g>
</g>
</svg>
