<svg width="222" height="26" viewBox="0 0 222 26" fill="none" xmlns="http://www.w3.org/2000/svg">
<g clip-path="url(#clip0_3445_401)">
<path d="M82.515 0.673093V5.53321H89.8211V25.347H94.7534V5.53321H102.059V0.673093H82.515ZM70.2968 0.673156L60.4275 25.347H65.7291L67.8972 19.9264H78.3508L80.519 25.347H85.8205L75.9514 0.673156H70.2968ZM69.8412 15.0663L73.1241 6.85887L76.407 15.0663H69.8412ZM47.9522 0C40.6659 0 34.7593 5.82026 34.7593 12.9999C34.7593 20.1796 40.6659 26 47.9522 26C55.2384 26 61.145 20.1797 61.145 12.9999C61.145 5.82013 55.2384 0 47.9522 0ZM47.9522 21.14C43.3972 21.14 39.6915 17.4884 39.6915 12.9999C39.6915 8.51151 43.3972 4.86005 47.9522 4.86005C52.5071 4.86005 56.2129 8.51157 56.2129 12.9999C56.2129 17.4883 52.5071 21.14 47.9522 21.14ZM153.257 0C145.971 0 140.064 5.82026 140.064 12.9999C140.064 20.1796 145.971 26 153.257 26C160.543 26 166.45 20.1797 166.45 12.9999C166.45 5.82013 160.543 0 153.257 0ZM153.257 21.14C148.702 21.14 144.996 17.4884 144.996 12.9999C144.996 8.51151 148.702 4.86005 153.257 4.86005C157.812 4.86005 161.518 8.51157 161.518 12.9999C161.518 17.4883 157.812 21.14 153.257 21.14ZM182.328 0C175.042 0 169.135 5.82026 169.135 12.9999C169.135 20.1796 175.042 26 182.328 26C189.614 26 195.521 20.1797 195.521 12.9999C195.521 5.82013 189.614 0 182.328 0ZM182.328 21.14C177.773 21.14 174.067 17.4884 174.067 12.9999C174.067 8.51151 177.773 4.86005 182.328 4.86005C186.883 4.86005 190.589 8.51157 190.589 12.9999C190.589 17.4883 186.883 21.14 182.328 21.14ZM22.5281 0.673156L22.5306 0.681156C23.2017 2.81128 22.7936 5.1294 21.4335 6.91229L18.4085 10.8777C17.5479 12.0056 16.9101 13.2581 16.5035 14.5733L12.124 0.673156H8.03215L0.258423 25.347H5.46428L10.1141 10.5883L14.7641 25.347H19.8978L19.5117 24.1212C18.851 20.8279 19.6251 17.3883 21.686 14.6665L24.2087 11.3346C24.4476 11.0191 24.6552 10.6863 24.834 10.3417L29.5616 25.347H34.7593L26.9852 0.673156H22.5281ZM129.642 15.2643L125.045 0.673087H119.924C120.993 4.06673 120.35 7.75955 118.193 10.6076L115.67 13.94C115.341 14.3747 115.066 14.8387 114.839 15.3213C114.839 15.3208 114.839 15.3205 114.839 15.3202L110.224 0.673081H104.94L112.713 25.347L117.434 25.3468L117.432 25.3399C116.68 22.9543 117.138 20.3583 118.661 18.3618L121.686 14.3958C122.387 13.4771 122.929 12.4693 123.307 11.4115L127.698 25.347H131.75L139.524 0.673093H134.239L129.642 15.2643ZM208.738 0.673093H198.206V25.347H208.738C215.653 25.347 221.258 19.8235 221.258 13.01C221.258 6.19659 215.653 0.673093 208.738 0.673093ZM208.738 20.4869H203.138V5.53321H208.738C212.929 5.53321 216.326 8.88077 216.326 13.01C216.326 17.1393 212.929 20.4869 208.738 20.4869Z" fill="white"/>
</g>
<defs>
<clipPath id="clip0_3445_401">
<rect width="221" height="26" fill="white" transform="translate(0.258423)"/>
</clipPath>
</defs>
</svg>
