<svg width="205" height="86" viewBox="0 0 205 86" fill="none" xmlns="http://www.w3.org/2000/svg">
<path fill-rule="evenodd" clip-rule="evenodd" d="M85.8612 40.5245L85.8613 40.5259V40.526V40.5261C85.8708 40.7507 85.8804 40.9782 85.8867 41.2042L85.8901 41.3061C85.8927 41.3802 85.8953 41.4541 85.8964 41.5288C85.9046 41.8679 85.9095 42.2055 85.9095 42.5463C85.9095 42.9163 85.9046 43.2847 85.8949 43.6514C85.8946 43.6716 85.8941 43.6917 85.8935 43.7118L85.8918 43.7639L85.8885 43.8478V43.8479V43.848V43.848L85.8857 43.918L85.8845 43.9529L85.8835 43.9826C85.8804 44.0662 85.8775 44.1498 85.8747 44.2334C85.8688 44.406 85.863 44.5784 85.8542 44.7501C85.8503 44.8275 85.8446 44.905 85.8389 44.9824C85.8352 45.0332 85.8314 45.084 85.8282 45.1347C85.8153 45.3701 85.8022 45.607 85.7828 45.8423C85.7764 45.9282 85.7686 46.0141 85.7608 46.1L85.7541 46.1748L85.7486 46.2367C85.7292 46.4671 85.7096 46.6976 85.6869 46.9264C85.6816 46.9732 85.6761 47.0198 85.6707 47.0663C85.6609 47.1487 85.6513 47.2306 85.6429 47.3126L85.6394 47.3432L85.6394 47.3437L85.6394 47.3439C85.6145 47.5641 85.5896 47.7856 85.5618 48.0055C85.5455 48.1289 85.5276 48.2506 85.5098 48.3723C85.4788 48.6077 85.4463 48.8413 85.4106 49.0751C85.3989 49.1515 85.3858 49.2279 85.3726 49.3044L85.3655 49.346L85.352 49.4255L85.3246 49.5939C85.2952 49.7752 85.2657 49.9567 85.2334 50.1364C85.2224 50.1947 85.211 50.2522 85.1995 50.3098C85.189 50.3626 85.1785 50.4154 85.1683 50.469L85.1398 50.6208L85.1398 50.6208L85.1398 50.6209L85.1397 50.621L85.1397 50.6211L85.1397 50.6212L85.1397 50.6213L85.1396 50.6214L85.1396 50.6215L85.1396 50.6216L85.1396 50.6217L85.1395 50.6218L85.1395 50.6219C85.104 50.8115 85.0684 51.0016 85.0287 51.1896C85.0181 51.2414 85.0067 51.2929 84.9954 51.3443C84.984 51.3959 84.9726 51.4475 84.962 51.4995L84.9212 51.6874C84.8816 51.8703 84.8419 52.0535 84.7995 52.2347L84.79 52.2741L84.7809 52.3112L84.7441 52.4594L84.7297 52.5187C84.6694 52.7703 84.6077 53.0202 84.5426 53.2701C84.5302 53.322 84.5159 53.3732 84.5017 53.4247L84.5016 53.4249L84.5016 53.4252L84.5015 53.4254L84.5014 53.4257L84.5014 53.426L84.5013 53.4262L84.5013 53.4263L84.5012 53.4264C84.4916 53.4613 84.4819 53.4962 84.4728 53.5314C84.4045 53.7878 84.3347 54.0426 84.2631 54.2957C84.2404 54.3753 84.216 54.4547 84.1916 54.5327C84.1153 54.794 84.0389 55.0536 83.9575 55.3116C83.9349 55.383 83.9105 55.4544 83.8877 55.5259C83.8016 55.7904 83.7155 56.0549 83.626 56.3178C83.6152 56.3505 83.6034 56.3838 83.5916 56.417C83.5806 56.4479 83.5696 56.4788 83.5594 56.5093C83.4651 56.7787 83.3709 57.0465 83.2717 57.3126C83.2612 57.3409 83.2503 57.3692 83.2394 57.3975L83.2273 57.4288C83.2204 57.4469 83.2135 57.465 83.2068 57.483C83.1045 57.7557 83.0003 58.0267 82.8932 58.296C82.872 58.3463 82.8525 58.3934 82.8331 58.4437C82.7208 58.7197 82.6071 58.9955 82.4901 59.2698L82.4695 59.3159L82.4691 59.3167L82.4689 59.3172L82.4687 59.3178C82.4573 59.3431 82.4457 59.3689 82.4347 59.3947C82.3145 59.6738 82.1911 59.953 82.0643 60.2289C82.0561 60.2468 82.0476 60.2647 82.039 60.2826C82.0305 60.3004 82.022 60.3182 82.0139 60.336C81.8838 60.6184 81.7506 60.8991 81.6142 61.1782C81.6089 61.1899 81.6034 61.2013 81.5978 61.2127L81.5848 61.2387L81.5719 61.2643C81.432 61.5483 81.289 61.8323 81.1428 62.1131C81.1313 62.1357 81.1184 62.1584 81.1071 62.1812C80.9575 62.4684 80.8047 62.7524 80.6486 63.0348L80.6194 63.0883C80.4601 63.3756 80.2992 63.6612 80.1336 63.9436C80.1295 63.9501 80.1258 63.9567 80.1221 63.9632L80.114 63.9774L80.1108 63.9826C79.9417 64.2698 79.7711 64.5554 79.5955 64.8394C79.593 64.8436 79.5906 64.8472 79.5881 64.8509C79.5857 64.8545 79.5833 64.8581 79.5809 64.8621C79.4037 65.1494 79.2218 65.4351 79.0365 65.719C79.0357 65.7207 79.0344 65.7227 79.0332 65.7248C79.032 65.7268 79.0307 65.7288 79.0299 65.7304C77.3317 68.3334 75.3554 70.7385 73.1435 72.9067L73.1426 72.9082L73.1406 72.9104L73.1403 72.9107C73.139 72.9119 73.1378 72.9131 73.137 72.9147C65.4514 80.4431 54.9201 85.0893 43.3015 85.0893C39.7683 85.0893 36.3376 84.6561 33.0562 83.8478C33.0562 83.8478 33.0547 83.8478 33.0531 83.8462C32.1103 83.6142 31.1791 83.3513 30.2625 83.0559C30.2592 83.0559 30.256 83.0543 30.2544 83.0543C29.5864 82.8385 28.925 82.608 28.2717 82.3629C28.2501 82.3545 28.229 82.3464 28.2078 82.3384L28.1657 82.3223L28.1368 82.311C27.5321 82.0822 26.9342 81.8388 26.3441 81.5823C26.2646 81.5482 26.1864 81.5142 26.1085 81.4785L26.0931 81.4718L26.0919 81.4713C25.9203 81.3957 25.7487 81.3202 25.5788 81.2416C25.5284 81.2188 25.4796 81.1961 25.4308 81.1734C25.1074 81.0241 24.7856 80.8699 24.467 80.7125L24.3935 80.6765L24.3934 80.6765C24.3183 80.6397 24.2428 80.6028 24.168 80.5649C24.0119 80.4869 23.8559 80.4074 23.7016 80.3263C23.5976 80.2728 23.4935 80.2175 23.3895 80.1623C23.131 80.026 22.8743 79.8865 22.6192 79.7453C22.5428 79.7031 22.4648 79.6593 22.3884 79.6155C9.44037 72.3175 0.696777 58.4518 0.696777 42.5464C0.696777 40.7823 0.807275 39.0442 1.01697 37.337L1.01538 37.3354C1.03801 37.1438 1.06399 36.9539 1.08998 36.7641C1.09657 36.7142 1.10357 36.6648 1.11054 36.6155L1.11056 36.6154L1.11056 36.6154C1.11742 36.5669 1.12425 36.5186 1.13064 36.4704C1.1844 36.1036 1.24114 35.7385 1.30304 35.3766C1.30587 35.3596 1.30848 35.3425 1.3111 35.3254L1.31111 35.3253L1.31112 35.3252C1.31603 35.2931 1.32098 35.2606 1.32744 35.2289C1.35819 35.0438 1.39232 34.8572 1.42802 34.6723C1.4456 34.5758 1.46451 34.4794 1.48345 34.3829L1.48495 34.3753C1.55003 34.0442 1.61828 33.7132 1.69148 33.3838L1.705 33.3186C1.71618 33.2641 1.72732 33.2099 1.74009 33.1565C1.77401 33.0063 1.80902 32.8573 1.84422 32.7074L1.86528 32.6177C1.87891 32.5606 1.89305 32.504 1.90712 32.4476C1.91823 32.4031 1.92931 32.3587 1.94007 32.3143C2.01646 32.006 2.09601 31.7008 2.17735 31.3957C2.19201 31.3445 2.20616 31.2928 2.22037 31.2408L2.22038 31.2408L2.22039 31.2407C2.23138 31.2005 2.24241 31.1602 2.25374 31.1199C2.30095 30.9462 2.35114 30.7726 2.40153 30.6005C2.43249 30.4966 2.46344 30.3928 2.49419 30.2906C2.58049 30.0017 2.67135 29.7161 2.76241 29.4304C2.7794 29.3795 2.796 29.3282 2.8126 29.2769C2.82933 29.2251 2.84606 29.1734 2.86319 29.1221C2.91783 28.9581 2.97425 28.7941 3.03067 28.63L3.03221 28.6256C3.05084 28.5713 3.06991 28.5174 3.08898 28.4635L3.08905 28.4633L3.08907 28.4632C3.10816 28.4093 3.12725 28.3553 3.14589 28.301C3.24191 28.0332 3.33933 27.7671 3.4401 27.5009C3.48236 27.3889 3.52462 27.2786 3.56846 27.1667C3.63037 27.0076 3.69206 26.8502 3.75535 26.6927C3.77787 26.6367 3.80073 26.581 3.82361 26.5253L3.82363 26.5252L3.82365 26.5252L3.82368 26.5251L3.8237 26.5251L3.82372 26.525L3.82375 26.5249L3.82377 26.5249L3.82379 26.5248L3.82382 26.5248L3.82384 26.5247L3.82386 26.5247L3.82389 26.5246L3.82391 26.5245L3.82394 26.5245L3.82396 26.5244L3.82404 26.5242C3.84735 26.4675 3.87066 26.4107 3.89362 26.3536C3.99758 26.1052 4.10153 25.857 4.20886 25.6087C4.23436 25.5514 4.25986 25.4936 4.28536 25.4359C4.31184 25.376 4.33832 25.3161 4.3648 25.2566C4.43146 25.1056 4.4997 24.9547 4.56795 24.8054L4.58498 24.7689C4.63464 24.6626 4.6843 24.5563 4.73539 24.45C4.84431 24.2179 4.95481 23.9874 5.06849 23.7586L5.12152 23.6513C5.16418 23.5647 5.207 23.4779 5.25061 23.3918C5.29845 23.2973 5.34709 23.2028 5.396 23.1077L5.3963 23.1071L5.39652 23.1067L5.46844 22.9667L5.56956 22.7753L5.66821 22.5885L5.6825 22.5621L5.68264 22.5618C5.7917 22.3597 5.90072 22.1577 6.01282 21.9573C6.08264 21.8307 6.15267 21.7041 6.22409 21.5791L6.30244 21.4423L6.30248 21.4422L6.30252 21.4421L6.30255 21.4421L6.30259 21.442L6.30263 21.442L6.30267 21.4419L6.3027 21.4418L6.30274 21.4418L6.30278 21.4417L6.30281 21.4416L6.30285 21.4416L6.30289 21.4415L6.30293 21.4415L6.30296 21.4414L6.303 21.4413L6.30304 21.4413C6.3531 21.3537 6.40316 21.2661 6.45323 21.1799C6.53298 21.0437 6.61253 20.9089 6.69209 20.7758L6.69433 20.7721C6.80905 20.5819 6.92378 20.3917 7.04165 20.203C7.12121 20.0747 7.20076 19.9466 7.28051 19.8184C7.36006 19.6934 7.43981 19.5685 7.52096 19.4451C7.61697 19.2974 7.7128 19.1514 7.81021 19.0053C7.92251 18.8365 8.03618 18.6694 8.15006 18.5022C8.23933 18.3724 8.3288 18.2442 8.41966 18.1144L8.46205 18.0547C8.53048 17.9581 8.59837 17.8624 8.66845 17.7655C8.7855 17.6015 8.90414 17.4393 9.02435 17.2786C9.1283 17.1374 9.23226 16.9995 9.338 16.8599C9.4372 16.7285 9.53779 16.5986 9.63857 16.4688L9.6612 16.4396C9.73794 16.3409 9.81371 16.2434 9.89211 16.1459C10.0367 15.9624 10.1847 15.7791 10.3325 15.5989C10.398 15.5182 10.4651 15.4384 10.5321 15.3588L10.5321 15.3588L10.5321 15.3588L10.5321 15.3587L10.5321 15.3587L10.5322 15.3587L10.5322 15.3587L10.5322 15.3587L10.5322 15.3587L10.5322 15.3587L10.5322 15.3586L10.5322 15.3586L10.5322 15.3586L10.5323 15.3586L10.5323 15.3586L10.5323 15.3586L10.5323 15.3586L10.6057 15.2711C10.7129 15.1429 10.8218 15.0131 10.9323 14.8848C10.974 14.8361 11.0158 14.7877 11.0576 14.7392L11.0579 14.739C11.1022 14.6876 11.1465 14.6363 11.1908 14.5846C11.3582 14.3947 11.5272 14.2033 11.6979 14.0151C11.7396 13.9691 11.7814 13.9236 11.8232 13.8781C11.8627 13.8351 11.9021 13.7922 11.9415 13.7489C12.0038 13.6825 12.0656 13.6162 12.1274 13.5499L12.1275 13.5499L12.1275 13.5498L12.1279 13.5494C12.1854 13.4877 12.2429 13.426 12.3008 13.3643L12.3099 13.3546C12.3945 13.2654 12.4776 13.1777 12.5624 13.09C12.7396 12.905 12.9199 12.72 13.1003 12.5382C13.1344 12.5041 13.1685 12.4706 13.2026 12.4371L13.2026 12.4371L13.2026 12.4371C13.2528 12.3877 13.3028 12.3386 13.3522 12.2883C13.4772 12.1651 13.6038 12.0434 13.7303 11.9218L13.7407 11.9118C13.8268 11.8274 13.9146 11.743 14.0023 11.6602C14.1908 11.4817 14.3826 11.3032 14.5745 11.1296C14.6587 11.0504 14.7444 10.9744 14.8302 10.8984L14.8302 10.8984L14.8312 10.8975C14.9693 10.7725 15.1091 10.6492 15.2488 10.5275C15.3262 10.4589 15.4051 10.3903 15.4839 10.3217L15.4844 10.3213L15.5105 10.2987C15.7089 10.1283 15.9103 9.95792 16.1118 9.79072C16.1715 9.74112 16.2318 9.69227 16.2919 9.64364L16.3767 9.57488L16.4098 9.54799C16.5467 9.43689 16.6836 9.32584 16.822 9.21621C16.8785 9.17231 16.9345 9.1277 16.9901 9.0833L16.9901 9.08328L16.9902 9.08326L16.9902 9.08323L16.9902 9.08321L16.9903 9.08319L16.9903 9.08316L16.9903 9.08314L16.9903 9.08312L16.9904 9.0831L16.9904 9.08307L16.991 9.08257L17.0821 9.0101C17.2918 8.84786 17.5031 8.68561 17.7142 8.52654C17.7687 8.48505 17.8237 8.44475 17.8786 8.40457L17.8787 8.40452C17.9139 8.3787 17.9491 8.35293 17.984 8.32694C18.1374 8.21332 18.2922 8.10127 18.447 7.9892L18.4604 7.97957C18.4936 7.95595 18.5271 7.93183 18.5607 7.90761C18.6126 7.87025 18.6648 7.83263 18.7171 7.79622C18.9349 7.6421 19.1559 7.48957 19.3769 7.33861C19.423 7.30793 19.4686 7.27728 19.5143 7.24662C19.5605 7.21561 19.6067 7.18461 19.6533 7.15359C19.8205 7.04166 19.9895 6.93121 20.1586 6.82087C20.2029 6.79227 20.2477 6.76319 20.2924 6.73412L20.2925 6.73411L20.2925 6.73411L20.4089 6.65862C20.6381 6.5142 20.8672 6.37137 21.0979 6.23022C21.1619 6.19056 21.2258 6.15241 21.2898 6.11422L21.3808 6.05975C21.558 5.95268 21.735 5.84719 21.9155 5.74328L21.9917 5.6988C22.0475 5.66611 22.1034 5.63338 22.1593 5.60213C22.3966 5.46584 22.6338 5.33272 22.8743 5.20286C22.9376 5.16752 23.001 5.13355 23.0644 5.09961C23.0969 5.08218 23.1294 5.06475 23.1619 5.04714C23.3504 4.94651 23.5391 4.84588 23.7291 4.74851L23.9632 4.62678C24.2086 4.50188 24.4541 4.38015 24.7026 4.26C24.8003 4.21293 24.8992 4.16589 24.9984 4.11884C25.1966 4.02473 25.395 3.93054 25.5948 3.83971C25.632 3.82275 25.6688 3.8058 25.7056 3.78885L25.7062 3.7886L25.7067 3.78835C25.7435 3.7714 25.7804 3.75445 25.8176 3.73749C25.8184 3.73749 25.8192 3.73789 25.82 3.73828C25.8208 3.73868 25.8215 3.73908 25.8223 3.73908C31.1562 1.34056 37.072 0 43.3014 0C47.2117 0 50.9985 0.52913 54.5951 1.51418C54.604 1.51661 54.6134 1.51943 54.6227 1.52226C54.632 1.52508 54.6413 1.52791 54.6503 1.53033C54.907 1.60175 55.1655 1.67485 55.4206 1.74943C55.4282 1.75133 55.4352 1.75376 55.4419 1.7561L55.4419 1.75611C55.4468 1.75781 55.4516 1.75946 55.4563 1.76082C55.796 1.86146 56.1324 1.96853 56.4673 2.0773C56.5923 2.1178 56.7175 2.15842 56.8411 2.19903C57.1516 2.30282 57.4603 2.41 57.7674 2.52193C57.87 2.55856 57.9725 2.59663 58.075 2.63469L58.0751 2.63475C58.127 2.654 58.1788 2.67324 58.2306 2.69229C58.4532 2.77509 58.6742 2.86107 58.8954 2.94714C59.0222 2.99578 59.1487 3.04611 59.2755 3.098C59.6235 3.23757 59.9713 3.38208 60.3141 3.53135L60.3206 3.53422C60.3332 3.53972 60.3459 3.54529 60.3597 3.55086C60.6359 3.6709 60.9122 3.79591 61.1852 3.92408C61.4485 4.04581 61.7102 4.17072 61.9702 4.29731C62.3262 4.47095 62.6789 4.64953 63.0298 4.83288C63.044 4.83941 63.0583 4.84671 63.072 4.85375L63.0915 4.86368C63.4524 5.05356 63.8099 5.24502 64.1642 5.44471C64.1763 5.45064 64.1869 5.45667 64.1973 5.46263L64.1999 5.46412C64.4324 5.59555 64.6632 5.72868 64.8939 5.86339C64.9199 5.87963 64.9476 5.89578 64.9736 5.91044C65.2044 6.04672 65.4335 6.1847 65.661 6.32585C65.6658 6.32912 65.6708 6.33238 65.6757 6.33397C66.043 6.5612 66.4038 6.79327 66.7629 7.0302C67.0311 7.2087 67.2976 7.38718 67.5608 7.57063C67.5723 7.57877 67.5841 7.58688 67.5959 7.595C67.6077 7.60308 67.6195 7.61116 67.6309 7.61927C67.9039 7.80914 68.1736 8.0006 68.4417 8.19544C68.4511 8.2022 68.4605 8.20912 68.4698 8.2161L68.4856 8.22788L68.5003 8.23888C68.5101 8.24612 68.5198 8.25331 68.5296 8.26032C68.7293 8.40633 68.9261 8.55401 69.1227 8.70497C69.1666 8.73746 69.2089 8.76985 69.2511 8.80234C69.4461 8.95161 69.6395 9.10257 69.833 9.2551C69.8622 9.27947 69.8915 9.30383 69.9207 9.32652C70.2994 9.63001 70.67 9.93835 71.0372 10.2531C71.2517 10.4366 71.4629 10.6216 71.6726 10.8082C71.6768 10.8115 71.6804 10.8147 71.6841 10.818L71.6892 10.8224L71.6955 10.8276C71.9099 11.0192 72.1228 11.2139 72.3341 11.4102C72.3845 11.4557 72.4349 11.5028 72.4837 11.5498C72.6461 11.7008 72.807 11.8549 72.9663 12.0091L73.0246 12.0661C73.0647 12.1054 73.1045 12.1444 73.1451 12.1827L73.1696 12.207L73.171 12.2084C73.3183 12.354 73.4657 12.4998 73.6115 12.6485C73.6374 12.6744 73.663 12.7003 73.6886 12.7262C73.7159 12.7539 73.7431 12.7815 73.7708 12.8091C74.2973 13.348 74.8094 13.8997 75.3065 14.4645L75.3068 14.4647C75.3408 14.502 75.3749 14.5392 75.4073 14.5781C75.5069 14.6902 75.6037 14.804 75.7005 14.9177L75.7005 14.9178L75.7007 14.9179C75.7383 14.9621 75.7759 15.0063 75.8136 15.0504C75.8393 15.081 75.8653 15.1114 75.8912 15.1418C75.9325 15.1902 75.9736 15.2385 76.0136 15.2873C76.1404 15.4382 76.2638 15.5891 76.3874 15.7417C76.4556 15.8233 76.5223 15.9064 76.589 15.9896L76.6036 16.0078L76.6068 16.0117C76.7259 16.1614 76.8451 16.311 76.9611 16.4606C77.0325 16.5515 77.1026 16.644 77.1724 16.7365C77.291 16.889 77.4081 17.0432 77.5249 17.199C77.5787 17.2704 77.6307 17.3434 77.6827 17.4164C77.9086 17.7232 78.1296 18.0331 78.3475 18.3463C78.3742 18.3851 78.4012 18.4236 78.4281 18.4621C78.4699 18.5218 78.5117 18.5815 78.5522 18.6417C78.6197 18.7412 78.6864 18.8415 78.753 18.9414L78.7534 18.9421L78.7541 18.943L78.8464 19.0815L78.8539 19.0927C78.9278 19.2042 79.0017 19.3157 79.0756 19.4288C79.1682 19.5716 79.2607 19.7161 79.3517 19.8605L79.3868 19.9169L79.4136 19.9597L79.4396 20.0011C79.4871 20.0769 79.5346 20.1526 79.5808 20.2289C79.6703 20.3717 79.758 20.5144 79.8441 20.6589C79.9022 20.7553 79.9592 20.8517 80.0167 20.9487L80.0766 21.05C80.1578 21.188 80.2391 21.3275 80.3204 21.4671C80.4131 21.6293 80.5024 21.79 80.5918 21.9523C80.7071 22.16 80.821 22.3678 80.9315 22.5772L80.9929 22.6928L80.9933 22.6936L80.9936 22.6941L80.9937 22.6945L80.9938 22.6947C81.0607 22.8206 81.1275 22.9462 81.1932 23.0737C81.2596 23.2017 81.3246 23.3313 81.3895 23.4609L81.3947 23.4713C81.4711 23.6223 81.5475 23.7748 81.6221 23.9273L81.6727 24.0325L81.7202 24.1312L81.7235 24.1382L81.7661 24.2268L81.8173 24.333L81.8783 24.4629C81.9309 24.5748 81.9834 24.6864 82.0349 24.7988C82.0954 24.9288 82.1541 25.0604 82.2128 25.1919L82.217 25.2012C82.2881 25.3587 82.3576 25.5175 82.4272 25.6764L82.438 25.7011C82.4704 25.7789 82.5041 25.856 82.5378 25.9333C82.5582 25.9802 82.5787 26.0272 82.5989 26.0744C82.6981 26.313 82.7955 26.5515 82.8914 26.79L82.9591 26.9629L83.0281 27.139C83.1158 27.3662 83.2034 27.595 83.2895 27.8238C83.3325 27.9408 83.3737 28.0579 83.4149 28.1749L83.4181 28.184C83.4848 28.3675 83.5496 28.5524 83.6131 28.7374L83.6152 28.7437L83.6155 28.7445L83.6156 28.7449L83.6157 28.7452L83.6159 28.7456L83.616 28.7459L83.6161 28.7463L83.6162 28.7466L83.6163 28.747L83.6164 28.7473C83.6592 28.8723 83.7019 28.9972 83.7431 29.1221C83.8032 29.3038 83.8633 29.4856 83.9218 29.669C83.9398 29.7272 83.958 29.7856 83.9763 29.8441L83.977 29.8462L83.9779 29.849L83.9913 29.8921L84.02 29.9842L84.0405 30.0504C84.1006 30.2467 84.1591 30.4447 84.216 30.6427C84.2502 30.7547 84.2843 30.8682 84.3152 30.9818C84.398 31.274 84.4793 31.5677 84.5557 31.8647L84.5622 31.8913L84.5712 31.9269L84.5805 31.964C84.5842 31.979 84.5879 31.9941 84.5914 32.0091C84.663 32.2882 84.7328 32.5706 84.7979 32.853C84.8219 32.9549 84.8445 33.0581 84.8669 33.1601L84.8725 33.1857C84.9197 33.395 84.9651 33.6044 85.0108 33.8154C85.0368 33.9387 85.0612 34.062 85.0856 34.187C85.126 34.3899 85.1651 34.5928 85.2024 34.7972L85.2025 34.7973C85.2253 34.9206 85.2481 35.0439 85.2691 35.1673C85.3082 35.3863 85.3439 35.6054 85.378 35.8245L85.3782 35.8257L85.3784 35.827C85.3961 35.9332 85.4139 36.0396 85.43 36.1458C85.4788 36.4704 85.526 36.7965 85.5665 37.1244C85.5683 37.1357 85.5698 37.1471 85.5714 37.1601C85.6121 37.4765 85.6478 37.7946 85.6804 38.1143C85.6898 38.2036 85.6981 38.2942 85.7064 38.3839L85.7113 38.4372L85.7121 38.4457L85.7122 38.4464C85.7329 38.669 85.7538 38.8932 85.7714 39.1172C85.7811 39.2405 85.7909 39.3655 85.799 39.4905C85.8138 39.6852 85.8257 39.8826 85.8376 40.0791L85.8377 40.0793L85.8377 40.0795L85.8377 40.0798L85.8377 40.0802L85.8377 40.0805L85.8378 40.0809L85.8378 40.0812L85.8378 40.0816L85.8378 40.0819L85.8379 40.0823L85.8379 40.0826L85.838 40.0848L85.8412 40.138L85.8607 40.5129L85.8612 40.5245ZM35.2665 75.6557H51.8973L51.8973 8.73424H37.1468L34.0589 11.4801L29.1216 15.8716L29.0859 21.803L29.0712 24.1951L35.2665 24.2535V75.6557ZM60.8553 31.1312C58.2128 31.1312 56.0626 33.2766 56.0626 35.9154C56.0626 38.5541 58.2128 40.7011 60.8553 40.7011C63.4979 40.7011 65.648 38.5542 65.648 35.9154C65.648 33.2766 63.4979 31.1312 60.8553 31.1312ZM58.0065 51.4233H61.4761L65.2532 46.2578L75.5829 32.1276L76.3793 31.0387H72.9094L58.0065 51.4233ZM72.9323 51.3958C73.0687 51.4071 73.2084 51.4152 73.3483 51.4152C75.9892 51.4152 78.1394 49.2683 78.1394 46.6294C78.1394 43.9906 75.9892 41.8436 73.3483 41.8436C70.7057 41.8436 68.5556 43.9906 68.5556 46.6294C68.5556 48.3431 69.464 49.8492 70.8228 50.6947C71.4451 51.0809 72.1635 51.3292 72.9323 51.3958ZM139.414 77.1373L139.4 74.4883L138.115 76.6446H137.487L136.209 74.5597V77.1373H134.902V72.1392H136.066L137.822 75.0238L139.536 72.1392H140.7L140.714 77.1373H139.414ZM145.727 77.1373V76.0449H143.114V75.1309H145.334V74.0742H143.114V73.2316H145.634V72.1392H141.714V77.1373H145.727ZM151.025 77.1373L151.01 74.4883L149.725 76.6446H149.097L147.819 74.5597V77.1373H146.512V72.1392H147.676L149.432 75.0238L151.146 72.1392H152.31L152.324 77.1373H151.025ZM157.837 75.0024C157.675 74.7882 157.452 74.6311 157.166 74.5311C157.38 74.4217 157.545 74.2741 157.659 74.0884C157.778 73.898 157.837 73.6838 157.837 73.4458C157.837 73.046 157.671 72.7294 157.338 72.4962C157.004 72.2582 156.519 72.1392 155.881 72.1392H153.325V77.1373H156.024C156.69 77.1373 157.199 77.0183 157.552 76.7803C157.904 76.5423 158.08 76.2043 158.08 75.7664C158.08 75.4665 157.999 75.2118 157.837 75.0024ZM154.724 74.1241V73.1602H155.695C156.171 73.1602 156.409 73.3197 156.409 73.6386C156.409 73.9623 156.171 74.1241 155.695 74.1241H154.724ZM156.652 75.6093C156.652 75.9473 156.405 76.1163 155.909 76.1163H154.724V75.1024H155.909C156.405 75.1024 156.652 75.2713 156.652 75.6093ZM162.826 76.0449V77.1373H158.813V72.1392H162.733V73.2316H160.212V74.0742H162.433V75.1309H160.212V76.0449H162.826ZM165.795 75.8092H165.024V77.1373H163.61V72.1392H165.895C166.347 72.1392 166.74 72.2153 167.073 72.3676C167.406 72.5152 167.663 72.7294 167.844 73.0103C168.025 73.2864 168.115 73.6124 168.115 73.9885C168.115 74.3503 168.03 74.6668 167.858 74.9381C167.692 75.2047 167.451 75.4141 167.137 75.5665L168.215 77.1373H166.702L165.795 75.8092ZM166.687 73.9885C166.687 73.7552 166.614 73.5743 166.466 73.4458C166.318 73.3173 166.099 73.253 165.809 73.253H165.024V74.7168H165.809C166.099 74.7168 166.318 74.6549 166.466 74.5311C166.614 74.4026 166.687 74.2217 166.687 73.9885ZM132.846 73.9431H126.539V75.3335H132.846V73.9431ZM170.268 73.9431H176.575V75.3335H170.268V73.9431ZM73.3481 44.5171C72.1812 44.5171 71.2321 45.4649 71.2321 46.63C71.2321 47.7937 72.1812 48.7414 73.3481 48.7414C74.5151 48.7414 75.4641 47.7937 75.4641 46.63C75.4641 45.4649 74.5151 44.5171 73.3481 44.5171ZM107.139 34.0886H98.8371V40.3495H93.9712V22.8179H108.018V27.0762H98.8371V30.0558H107.139V34.0886ZM119.177 40.6994C124.595 40.6994 128.658 36.6179 128.658 31.5838V31.5335C128.658 26.4994 124.644 22.4683 119.227 22.4683C113.81 22.4683 109.746 26.5513 109.746 31.5838V31.6341C109.746 36.6666 113.758 40.6994 119.177 40.6994ZM114.738 31.5335C114.738 29.0051 116.518 26.85 119.177 26.85C121.86 26.85 123.692 29.0538 123.692 31.5838V31.6341C123.692 34.1625 121.91 36.3177 119.227 36.3177C116.568 36.3177 114.738 34.1139 114.738 31.5838L114.738 31.5335ZM138.314 35.041H136.182V40.3494H131.316V22.8193H139.619C142.302 22.8193 144.158 23.5204 145.337 24.7213C146.365 25.7243 146.892 27.0762 146.892 28.8045V28.8548C146.892 31.5341 145.462 33.3127 143.281 34.2394L147.469 40.3494H141.85L138.314 35.041ZM139.367 27.0258H136.182L136.182 31.2338H139.393C141.048 31.2338 142 30.4322 142 29.155V29.1047C142 27.7269 140.997 27.0258 139.367 27.0258ZM153.186 27.0771H158.453V40.3505H163.319V27.0771H168.586V22.8188H153.186V27.0771ZM175.709 29.379H181.955V22.8179H186.821V40.3495H181.955V33.6877H175.709V40.3495H170.843V22.8179H175.709V29.379ZM194.872 36.2172V33.4372H203.299V29.6056H194.872V26.9507H204.177V22.8188H190.055V40.3506H204.303V36.2172H194.872ZM60.855 33.8035C62.0219 33.8035 62.971 34.7513 62.971 35.9164C62.971 37.0801 62.0219 38.0278 60.855 38.0278C59.6881 38.0278 58.739 37.0801 58.739 35.9164C58.739 34.7513 59.6881 33.8035 60.855 33.8035ZM101.908 43.8425H93.8491V62.6222H99.0612V57.2554H101.64C106.316 57.2554 109.729 54.9234 109.729 50.4946V50.441C109.729 46.2833 106.665 43.8425 101.908 43.8425ZM104.515 50.7364C104.515 52.2132 103.387 53.1788 101.533 53.1788H99.0612V48.2145H101.507C103.387 48.2145 104.515 49.073 104.515 50.6845L104.515 50.7364ZM111.93 43.8428H117.144V58.0622H126.251V62.6224H111.93V43.8428ZM134.983 43.7078L126.976 62.6221H132.458L133.8 59.2694H141.055L142.425 62.6221H148.014L140.009 43.7078H134.983ZM135.331 55.2171L137.455 49.8795L139.55 55.2171H135.331ZM154.705 43.8425L162.444 53.7695V43.8425H167.601V62.6222H163.034L155.001 52.3203V62.6222H149.842V43.8425H154.705ZM176.092 55.2172H185.118V51.113H176.092V48.2697H186.06V43.8425H170.932V62.6222H186.194V58.195H176.092V55.2172ZM193.446 48.403H187.803V43.8428H204.301V48.403H198.66V62.6223H193.446V48.403ZM201.479 59.3154C200.564 59.3154 199.839 60.0684 199.839 60.9642V60.974C199.839 61.8682 200.554 62.613 201.479 62.613C202.397 62.613 203.122 61.8585 203.122 60.9642V60.9545C203.122 60.0603 202.404 59.3154 201.479 59.3154ZM202.848 60.9642C202.848 61.7172 202.251 62.3453 201.479 62.3453C200.701 62.3453 200.114 61.7253 200.114 60.9723V60.9642C200.114 60.2112 200.707 59.5816 201.479 59.5816C202.261 59.5816 202.848 60.2015 202.848 60.9545V60.9642ZM201.587 60.1216C201.987 60.1216 202.271 60.2903 202.271 60.6717C202.271 60.9281 202.138 61.1066 201.933 61.1861L202.325 61.7524H201.792L201.464 61.2656H201.269V61.7524H200.807V60.1216H201.587ZM201.269 60.9021H201.561C201.722 60.9021 201.81 60.8226 201.81 60.7074C201.81 60.5825 201.722 60.5126 201.561 60.5126H201.269V60.9021Z" fill="#1F335D"/>
</svg>
