<svg width="115" height="20" viewBox="0 0 115 20" fill="none" xmlns="http://www.w3.org/2000/svg">
<path d="M9.85037 0.54126L12.0492 6.8669L18.7447 7.00334L13.4081 11.0492L15.3473 17.4592L9.85037 13.6341L4.35339 17.4592L6.29265 11.0492L0.956072 7.00334L7.65158 6.8669L9.85037 0.54126Z" fill="white"/>
<path d="M33.5544 0.54126L35.7532 6.8669L42.4487 7.00334L37.1121 11.0492L39.0514 17.4592L33.5544 13.6341L28.0574 17.4592L29.9967 11.0492L24.6601 7.00334L31.3556 6.8669L33.5544 0.54126Z" fill="white"/>
<path d="M57.2584 0.54126L59.4572 6.8669L66.1527 7.00334L60.8161 11.0492L62.7554 17.4592L57.2584 13.6341L51.7614 17.4592L53.7007 11.0492L48.3641 7.00334L55.0596 6.8669L57.2584 0.54126Z" fill="white"/>
<path d="M80.9624 0.54126L83.1612 6.8669L89.8567 7.00334L84.5202 11.0492L86.4594 17.4592L80.9624 13.6341L75.4655 17.4592L77.4047 11.0492L72.0682 7.00334L78.7637 6.8669L80.9624 0.54126Z" fill="white"/>
<path d="M104.666 0.54126L106.865 6.8669L113.561 7.00334L108.224 11.0492L110.163 17.4592L104.666 13.6341L99.1695 17.4592L101.109 11.0492L95.7722 7.00334L102.468 6.8669L104.666 0.54126Z" fill="white"/>
</svg>
