<svg width="71" height="59" viewBox="0 0 71 59" fill="none" xmlns="http://www.w3.org/2000/svg">
<path d="M38.534 34.7534C38.534 34.7534 60.7226 27.3727 60.0683 25.9714C59.4146 24.5701 38.4418 33.9245 38.4418 33.9245C38.4418 33.9245 59.6016 21.6742 59.6953 19.4787C59.7886 17.2831 38.1641 33.1231 38.1641 33.1231C38.1641 33.1231 54.3693 17.0029 54.9769 14.0132C55.5841 11.0235 37.6087 32.2756 37.6087 32.2756C37.6087 32.2756 50.9133 12.6119 50.5393 9.71545C50.1653 6.81903 37.1409 31.8207 37.1409 31.8207C37.1409 31.8207 45.868 11.9115 46.1017 8.03386C46.3353 4.15676 36.412 31.3555 36.412 31.3555C36.412 31.3555 43.0654 7.84736 41.9914 5.97875C40.9165 4.11014 35.5847 31.0633 35.5847 31.0633C35.5847 31.0633 37.8802 7.98723 36.6659 4.5769C35.451 1.16657 34.7506 30.9696 34.7506 30.9696C34.7506 30.9696 33.6757 5.60472 32.2744 4.99756C30.873 4.3904 34.0829 31.0286 34.0829 31.0286C34.0829 31.0286 28.491 5.46432 26.9493 6.44551C25.4076 7.42722 33.4084 31.2151 33.4084 31.2151C33.4084 31.2151 25.1739 7.4267 23.913 7.89399C22.6521 8.36127 32.9784 31.4115 32.9784 31.4115C32.9784 31.4115 21.1249 9.8574 20.1292 10.6966C19.2423 11.4437 32.5199 31.7016 32.5199 31.7016C32.5199 31.7016 24.1933 21.8145 21.6937 18.2172C19.1951 14.6204 17.829 12.8295 17.4664 13.6392C16.595 15.586 31.7775 32.4149 31.7775 32.4149C31.7775 32.4149 13.5426 14.9944 14.2436 18.0302C14.9165 20.9458 30.1788 32.1233 31.3947 33.0096C31.3931 33.0127 31.3916 33.0169 31.3895 33.02C30.2016 32.3346 16.2666 24.3033 11.0203 21.4871C10.4747 21.195 10.18 21.9384 12.3278 23.5894C14.3653 25.1549 31.0538 33.9442 31.0538 33.9442C31.0538 33.9442 14.5301 27.913 9.94582 28.9144C9.09051 29.1015 9.54329 30.1324 15.5677 31.3436C19.9903 32.2331 27.5979 34.0426 31.2963 34.9342L33.3721 36.0718C33.0095 39.3091 31.4496 54.1254 33.4426 52.5827C34.4087 51.8346 33.7741 39.0574 34.1865 36.5179L36.7871 37.943L36.7881 37.9425C42.3815 42.0833 53.0399 49.8764 53.1088 49.1879C53.2026 48.2533 37.6776 37.152 37.6776 37.152C37.6776 37.152 56.099 46.6655 57.7806 46.1044C59.4617 45.5439 38.1289 36.4578 38.1289 36.4578C38.1289 36.4578 57.9666 40.5924 60.1155 39.6583C62.2638 38.7243 38.4288 35.6346 38.4288 35.6346C38.4288 35.6346 59.742 33.7256 60.863 32.6511C61.9841 31.5767 38.534 34.7534 38.534 34.7534Z" fill="#1F335D"/>
</svg>
