<svg width="71" height="59" viewBox="0 0 71 59" fill="none" xmlns="http://www.w3.org/2000/svg">
<path d="M50.4315 19.9222C45.988 21.7889 45.3207 20.0114 44.6764 21.0778C44.0326 22.1442 43.1431 23.9222 41.6327 24.5441C40.1218 25.166 37.4557 23.7438 40.0335 22.8553C42.6104 21.9668 44.2997 20.9891 45.1882 18.1452C46.0767 15.3012 47.4102 11.3904 46.3438 11.3904C45.2769 11.3904 42.6996 13.1679 41.0995 15.3007C39.4998 17.4336 38.256 15.6561 37.2778 17.7002C36.3001 19.7443 37.367 20.0109 37.0112 21.6997C36.6559 23.388 33.9007 25.5213 34.6118 22.7661C35.3229 20.0109 38.4329 16.1893 36.0335 13.7006C33.6341 11.212 32.0345 8.90131 32.0345 7.03509C32.0345 5.16839 29.9017 3.12428 29.1906 9.43452C28.4795 15.7448 26.7024 16.9891 28.1242 19.0332C29.5464 21.0773 31.9463 21.0773 31.5905 22.8548C31.2347 24.6323 30.0791 25.9658 29.2793 23.4772C28.4795 20.9886 25.9913 16.0119 23.9472 16.5451C21.9031 17.0783 20.0369 14.8562 19.5032 14.5009C18.97 14.1456 15.7703 12.7234 18.1702 17.4341C20.5696 22.1447 20.2148 22.1447 21.4591 23.7443C22.7029 25.3444 24.303 25.8771 26.525 26.3216C28.747 26.7661 30.8794 28.1878 28.8357 28.1878C26.7916 28.1878 25.1028 27.1214 23.1479 26.3216C21.1925 25.5218 17.3709 25.0773 15.8599 26.3216C14.349 27.5659 15.5929 27.5547 17.5478 29.2932C19.5032 31.0313 22.7029 32.9872 24.0359 31.4763C25.3694 29.9653 26.969 29.6987 27.5909 30.5877C28.2129 31.4763 28.2129 32.6314 25.9913 32.7206C23.7693 32.8098 19.4145 33.6983 18.8808 36.009C18.3476 38.3192 16.6588 40.8078 19.7693 39.6527C22.8803 38.4976 22.969 40.897 24.5691 39.119C26.1687 37.342 26.0805 35.12 27.5909 34.7642C29.1014 34.4084 32.3898 33.0754 30.9681 34.8534C29.5464 36.6304 26.6128 37.4307 26.4353 39.0303C26.2579 40.6299 25.1028 43.9184 26.2579 44.0076C27.4131 44.0967 29.5468 41.7851 31.8571 39.9188C34.1673 38.0526 32.3011 35.7424 33.368 34.9421C34.4344 34.1418 34.6123 35.3861 34.6123 35.3861C34.6123 35.3861 36.034 49.3396 35.6787 51.2063C35.3234 53.0725 36.7456 53.8728 37.7228 53.1617C38.7 52.4506 34.9676 35.8306 35.7669 35.3861C36.5672 34.9421 36.2114 37.5194 37.0117 38.8519C37.812 40.1854 39.589 40.0075 41.3665 40.8965C43.1441 41.7846 42.6109 42.9402 43.6778 43.1185C44.7442 43.296 44.4776 41.4293 43.6778 40.452C42.8775 39.4743 43.4112 39.1185 43.4112 37.5189C43.4112 35.9188 43.1368 33.0754 39.4969 33.4302C35.8566 33.7855 37.1009 31.4748 39.8556 32.0085C42.6104 32.5417 45.5435 35.4743 46.877 35.4743C48.2095 35.4743 52.0316 33.8747 53.5425 33.0749C55.0534 32.2746 53.4538 31.7414 51.8537 30.4971C50.2546 29.2528 49.7209 27.0313 47.6768 28.009C45.6332 28.9867 41.1891 30.0526 41.811 28.8975C42.433 27.7424 47.4989 27.4758 48.5658 26.7647C49.6322 26.0536 52.888 22.054 54.1484 21.3429C55.4092 20.6333 54.8755 18.056 50.4315 19.9222ZM35.7318 31.9237C41.7565 28.4271 48.6389 31.5328 48.7125 31.5659L48.5078 32.0085C48.4342 31.9739 41.137 28.6928 35.1626 32.8712C39.3765 35.1268 42.2078 39.6391 42.3291 39.836L41.9149 40.0919C41.8846 40.0441 38.9189 35.3076 34.6849 33.1646C33.0351 33.8045 29.425 38.9051 28.1505 40.8522L27.7425 40.5856C27.9194 40.3151 31.7318 34.5132 34.0035 32.9852C28.7958 31.9836 21.8373 36.259 21.7647 36.3043L21.5073 35.8901C21.8095 35.7019 28.6739 31.4889 34.0508 32.4988C30.7682 29.1436 19.4657 27.9973 19.3458 27.9851L19.3935 27.5001C19.8756 27.5474 30.3564 28.6119 34.0918 31.8701C32.3518 28.6182 24.766 21.6597 20.5452 18.0628L20.8611 17.6919C21.3645 18.1208 31.9078 27.1351 34.41 31.4767C33.9592 24.2054 30.4183 12.74 30.3798 12.6172L30.8453 12.4724C30.8818 12.5904 34.1278 23.1039 34.8155 30.443C35.5447 26.8436 37.7209 19.9933 44.1037 14.9313L44.4064 15.3129C37.0853 21.1192 35.4043 29.3239 35.0407 32.0138C39.65 26.0204 49.7112 22.3518 49.8159 22.3138L49.9807 22.7724C49.8798 22.81 40.3747 26.2753 35.7318 31.9237Z" fill="#1F335D"/>
</svg>
